SplineFontDB: 3.0
FontName: OldSindhi
FullName: OldSindhi
FamilyName: OldSindhi
Weight: Medium
Copyright: Created by Takashi,U-TT-PC\\TT,S-1-5-21-3939717196-1740469357- with FontForge 2.0 (http://fontforge.sf.net)
UComments: "2012-5-12: Created." 
Version: 001.000
StrokeWidth: 60
ItalicAngle: 0
UnderlinePosition: -100
UnderlineWidth: 50
Ascent: 800
Descent: 200
LayerCount: 2
Layer: 0 0 "+gMyXYgAA"  1
Layer: 1 0 "+Uk2XYgAA"  0
StrokedFont: 1
XUID: [1021 494 2031268696 3079280]
OS2Version: 0
OS2_WeightWidthSlopeOnly: 0
OS2_UseTypoMetrics: 1
CreationTime: 1336774254
ModificationTime: 1336809828
OS2TypoAscent: 0
OS2TypoAOffset: 1
OS2TypoDescent: 0
OS2TypoDOffset: 1
OS2TypoLinegap: 0
OS2WinAscent: 0
OS2WinAOffset: 1
OS2WinDescent: 0
OS2WinDOffset: 1
HheadAscent: 0
HheadAOffset: 1
HheadDescent: 0
HheadDOffset: 1
OS2Vendor: 'PfEd'
Lookup: 260 0 0 "Above-base Marks"  {"Above-base Marks-1"  } []
Lookup: 260 0 0 "Below-base Marks"  {"Below-base Marks-1"  } []
MarkAttachClasses: 1
DEI: 91125
LangName: 1033 
Encoding: Custom
UnicodeInterp: none
NameList: Adobe Glyph List
DisplaySize: -48
AntiAlias: 1
FitToEm: 1
WinInfo: 0 16 4
BeginPrivate: 0
EndPrivate
Grid
-1000 540 m 0
 2000 540 l 0
  Named: "tallbase" 
-1000 480 m 0
 2000 480 l 0
  Named: "shortbase" 
-1000 -255 m 0
 2000 -255 l 0
  Named: "descender" 
-1000 600 m 0
 2000 600 l 0
  Named: "topbase" 
EndSplineSet
AnchorClass2: "anusvara"  "Above-base Marks-1" "ukaar"  "Below-base Marks-1" "ekaar"  "Above-base Marks-1" 
BeginChars: 72 72

StartChar: akAra
Encoding: 0 70320 0
Width: 1008
VWidth: 0
Flags: W
AnchorPoint: "ekaar" 750 480 basechar 0
AnchorPoint: "anusvara" 504 720 basechar 0
LayerCount: 2
Fore
SplineSet
120 480 m 17
 216 399 232 115.2 229 0 c 1
 264 195 345 480 450 480 c 0
 510 480 504 180 504 0 c 1
 527 156 609 480 732 480 c 4
 834 480 712 0 832 0 c 0
 888.706 0 901 26.4004 928 55.2002 c 9
EndSplineSet
EndChar

StartChar: it
Encoding: 2 70322 2
Width: 755
VWidth: 0
Flags: W
AnchorPoint: "anusvara" 377 720 basechar 0
LayerCount: 2
Fore
SplineSet
189 372 m 17
 588 372 531 0 324 0 c 0
 219 0 120 66 120 225 c 0
 120 444 309 540 675 540 c 1
EndSplineSet
EndChar

StartChar: It
Encoding: 3 70323 3
Width: 1096
VWidth: 0
Flags: W
AnchorPoint: "anusvara" 548 720 basechar 0
LayerCount: 2
Fore
SplineSet
1016.64 540 m 1
 772.645 540 594.959 444 561.457 225 c 0
 537.134 66 626.037 0 731.037 0 c 0
 938.037 0 926.466 480 500.042 480 c 1
 320.042 480 157.958 444 124.456 225 c 0
 109.312 126 129.613 0 234.612 0 c 0
 441.613 0 515.836 318 237.944 414 c 9
EndSplineSet
EndChar

StartChar: ut
Encoding: 4 70324 4
Width: 748
VWidth: 0
Flags: W
AnchorPoint: "anusvara" 374 720 basechar 0
LayerCount: 2
Fore
SplineSet
186 540 m 17
 267 540 301.25 540 406.25 540 c 0
 517.122 540 613.25 519 613.25 396 c 0
 613.25 275.348 375.25 294 264.25 291 c 1
 375.25 294 628.25 294 628.25 156 c 0
 628.25 54.9121 522.338 0 421.25 0 c 0
 322 0 120 12 120 222 c 0
 120 404 142 480 170 540 c 5
EndSplineSet
EndChar

StartChar: Ut
Encoding: 5 70325 5
Width: 748
VWidth: 0
Flags: W
AnchorPoint: "anusvara" 374 800 basechar 0
LayerCount: 2
Fore
SplineSet
186 540 m 17
 267 540 301.25 540 406.25 540 c 0
 517.122 540 613.25 519 613.25 396 c 0
 613.25 275.348 375.25 294 264.25 291 c 1
 375.25 294 628.25 294 628.25 156 c 0
 628.25 54.9121 522.338 0 421.25 0 c 0
 322 0 120 12 120 222 c 0
 120 404 142 480 170 540 c 0
 222.52 652.542 274 730 378 730 c 0
 514 730 526.25 610 490.25 540 c 9
EndSplineSet
EndChar

StartChar: ka
Encoding: 10 70330 10
Width: 853
VWidth: 0
Flags: W
AnchorPoint: "anusvara" 426 720 basechar 0
AnchorPoint: "ukaar" 426 0 basechar 0
AnchorPoint: "ekaar" 545 480 basechar 0
LayerCount: 2
Fore
SplineSet
80 324 m 17
 90.5 379.2 158 480 218 480 c 0
 315.5 480 308 180 309.5 0 c 1
 320 230.4 389 480 545 480 c 4
 695 480 537.5 0 665 0 c 0
 714.362 0 729.5 19.2002 773 52.7998 c 9
EndSplineSet
EndChar

StartChar: kha
Encoding: 11 70331 11
Width: 712
VWidth: 0
Flags: W
AnchorPoint: "anusvara" 356 720 basechar 0
AnchorPoint: "ukaar" 356 0 basechar 0
AnchorPoint: "ekaar" 530 480 basechar 0
LayerCount: 2
Fore
SplineSet
334.432 480 m 17
 490.432 480 568.432 468 587.932 384 c 0
 607.429 300.014 448.432 252 362.932 259.2 c 1
 448.432 252 586.008 224.588 592.432 139.2 c 24
 598.821 54.2646 506.932 0 382.432 0 c 0
 290.932 0 256.432 28.7998 241.432 45.5996 c 9
166.432 480 m 17
 124.432 410.4 91.4922 274.497 157.432 271.2 c 0
 253.432 266.4 282.787 263.88 362.932 259.2 c 25
EndSplineSet
EndChar

StartChar: ga
Encoding: 12 70332 12
Width: 789
VWidth: 0
Flags: W
AnchorPoint: "anusvara" 394 720 basechar 0
AnchorPoint: "ukaar" 394 0 basechar 0
AnchorPoint: "ekaar" 550 480 basechar 0
LayerCount: 2
Fore
SplineSet
599.258 410.4 m 25
 316.516 156 l 25
120 480 m 17
 428.258 480 l 2
 563.259 480 671.258 417.6 669.758 220.8 c 0
 668.985 119.502 581.258 0 386.258 0 c 9
145.5 480 m 17
 150 79.2002 129 124.8 132 67.2002 c 0
 133.645 35.6211 174 19.2002 211.5 0 c 9
EndSplineSet
EndChar

StartChar: gqa
Encoding: 13 70333 13
Width: 679
VWidth: 0
Flags: W
AnchorPoint: "anusvara" 339 720 basechar 0
AnchorPoint: "ukaar" 400 0 basechar 0
AnchorPoint: "ekaar" 560 480 basechar 0
LayerCount: 2
Fore
SplineSet
559.646 480 m 25
 559.646 0 l 25
322.146 480 m 17
 322.146 288 321.646 224 321.646 110.4 c 0
 321.646 50.502 257.646 0 183.646 0 c 0
 87.6465 0 53.5488 129.347 101.646 203.2 c 24
 138.88 260.371 263.646 260.8 307.646 190.4 c 9
EndSplineSet
EndChar

StartChar: gha
Encoding: 14 70334 14
Width: 770
VWidth: 0
Flags: W
AnchorPoint: "anusvara" 385 720 basechar 0
AnchorPoint: "ukaar" 385 0 basechar 0
AnchorPoint: "ekaar" 560 540 basechar 0
LayerCount: 2
Fore
SplineSet
572.212 451.8 m 25
 467.896 344.462 440.129 307.804 304.734 176.575 c 0
 200.734 75.7754 65.7012 200.994 142.734 279.175 c 0
 236.734 374.575 370.734 261.175 318.734 189.175 c 9
202.212 487.8 m 17
 396.212 604.8 650.212 509.4 650.212 293.4 c 0
 650.212 107.945 576.212 0 374.212 0 c 9
EndSplineSet
EndChar

StartChar: Ga
Encoding: 15 70335 15
Width: 798
VWidth: 0
Flags: W
AnchorPoint: "anusvara" 399 720 basechar 0
AnchorPoint: "ukaar" 399 0 basechar 0
AnchorPoint: "ekaar" 480 480 basechar 0
LayerCount: 2
Fore
SplineSet
678 249.6 m 29
 639 218.4 l 29
120 208 m 17
 364.5 214.4 488 72 551.5 9.59961 c 9
166 480 m 17
 396 480 516 472.069 516 352 c 0
 516 249.6 408 209.6 250 200 c 9
EndSplineSet
EndChar

StartChar: ca
Encoding: 16 70336 16
Width: 776
VWidth: 0
Flags: W
AnchorPoint: "anusvara" 388 720 basechar 0
AnchorPoint: "ukaar" 388 0 basechar 0
AnchorPoint: "ekaar" 656 540 basechar 0
LayerCount: 2
Fore
SplineSet
120 540 m 17
 254 408.6 530 187.2 530 108 c 0
 530 46.7998 460.499 -0.959961 388 0 c 24
 317.942 0.927734 258 52.2002 258 111.6 c 0
 258 183.6 534 412.2 656 540 c 13
EndSplineSet
EndChar

StartChar: cha
Encoding: 17 70337 17
Width: 893
VWidth: 0
Flags: W
AnchorPoint: "anusvara" 446 720 basechar 0
AnchorPoint: "ukaar" 446 0 basechar 0
AnchorPoint: "ekaar" 473 540 basechar 0
LayerCount: 2
Fore
SplineSet
80 540 m 25
 473 540 l 21
 203 540 161 529.2 161 461.7 c 0
 161 299.7 338 299.7 482 299.7 c 1
 299 299.7 203 270 203 178.2 c 0
 203 64.7998 341 0 518 0 c 0
 731 0 773 59.4004 773 153.9 c 0
 773 294.3 584 272.7 554 205.2 c 0
 522.808 135.018 566 54 623 21.5996 c 0
EndSplineSet
EndChar

StartChar: ja
Encoding: 18 70338 18
Width: 898
VWidth: 0
Flags: W
AnchorPoint: "anusvara" 449 720 basechar 0
AnchorPoint: "ukaar" 449 0 basechar 0
AnchorPoint: "ekaar" 720 480 basechar 0
LayerCount: 2
Fore
SplineSet
210.132 297.6 m 17
 435.132 204 402.132 0 237.132 0 c 0
 120.132 0 106.49 118 129.132 201.6 c 0
 168.132 345.6 330.101 480 540.132 480 c 0
 709.565 480 778.566 438.065 778.566 316.8 c 0
 778.566 146.4 540.402 57.5811 537.132 28.7998 c 0
 534.132 2.40039 614.583 0 666.132 0 c 18
 772.566 0 l 25
EndSplineSet
EndChar

StartChar: jqa
Encoding: 19 70339 19
Width: 1054
VWidth: 0
Flags: W
AnchorPoint: "anusvara" 527 720 basechar 0
AnchorPoint: "ukaar" 527 0 basechar 0
AnchorPoint: "ekaar" 934 480 basechar 0
LayerCount: 2
Fore
SplineSet
120 480 m 17
 258 427.2 237 184.8 249 0 c 9
 448.5 400.8 l 25
 484.5 0 l 17
 562.5 235.2 712.5 223.2 775.5 225.6 c 0
 889.371 229.938 955.5 0 760.5 0 c 0
 538.5 0 697.5 480 934.5 480 c 4
EndSplineSet
EndChar

StartChar: jha
Encoding: 20 70340 20
Width: 910
VWidth: 0
Flags: W
AnchorPoint: "anusvara" 455 720 basechar 0
AnchorPoint: "ukaar" 455 0 basechar 0
AnchorPoint: "ekaar" 740 480 basechar 0
LayerCount: 2
Fore
SplineSet
210.132 297.6 m 17
 435.132 204 402.132 0 237.132 0 c 0
 120.132 0 106.49 118 129.132 201.6 c 0
 168.132 345.6 330.101 480 540.132 480 c 0
 744.132 480 790.566 438.065 790.566 316.8 c 0
 790.566 146.4 544.566 230.4 544.566 88.7998 c 0
 544.566 21.5996 604.899 0 657.132 0 c 0
 739.565 0 766.565 36 765.001 72 c 0
 762.274 134.702 745.565 165.6 643.566 177.6 c 9
EndSplineSet
EndChar

StartChar: Ja
Encoding: 21 70341 21
Width: 825
VWidth: 0
Flags: W
AnchorPoint: "anusvara" 412 720 basechar 0
AnchorPoint: "ukaar" 412 0 basechar 0
AnchorPoint: "ekaar" 510 540 basechar 0
LayerCount: 2
Fore
SplineSet
705 300 m 25
 666 268.801 l 25
132 480 m 17
 198 525 234 540 339 540 c 0
 449.872 540 546 519 546 396 c 0
 546 275.348 366 294 255 291 c 1
 366 294 561 294 561 156 c 0
 561 54.9121 454.938 5.49316 354 0 c 24
 249.376 -5.69336 168 39 120 132 c 9
EndSplineSet
EndChar

StartChar: Ta
Encoding: 22 70342 22
Width: 810
VWidth: 0
Flags: W
AnchorPoint: "anusvara" 405 720 basechar 0
AnchorPoint: "ukaar" 405 0 basechar 0
AnchorPoint: "ekaar" 636 480 basechar 0
LayerCount: 2
Fore
SplineSet
80 480 m 25
 636.2 480 l 21
 325.7 480 145.416 381.606 147.5 211.2 c 0
 150.2 -9.59961 350 0 690.2 0 c 9
EndSplineSet
EndChar

StartChar: Tha
Encoding: 23 70343 23
Width: 801
VWidth: 0
Flags: W
AnchorPoint: "anusvara" 400 720 basechar 0
AnchorPoint: "ukaar" 400 0 basechar 0
AnchorPoint: "ekaar" 610 540 basechar 0
LayerCount: 2
Fore
SplineSet
681.6 0 m 17
 311.699 0 120 0 120 315.9 c 0
 120 510.3 241.5 540 489.899 540 c 0
 649.199 540 686.771 361.532 600.6 342.9 c 24
 436.23 307.36 263.1 334.8 190.199 475.2 c 0
EndSplineSet
EndChar

StartChar: Da
Encoding: 24 70344 24
Width: 843
VWidth: 0
Flags: W
AnchorPoint: "anusvara" 421 720 basechar 0
AnchorPoint: "ukaar" 421 0 basechar 0
AnchorPoint: "ekaar" 640 540 basechar 0
LayerCount: 2
Fore
SplineSet
684.3 372.6 m 25
 211.8 132.3 l 25
600.6 483.3 m 25
 160.5 261.9 l 25
120 469.8 m 17
 236.1 540 357.6 540 444 540 c 0
 603.3 540 757.454 383.549 716.699 226.8 c 24
 670.45 48.9209 489.899 0 303.6 0 c 9
EndSplineSet
EndChar

StartChar: Dqa
Encoding: 25 70345 25
Width: 755
VWidth: 0
Flags: W
AnchorPoint: "anusvara" 377 720 basechar 0
AnchorPoint: "ukaar" 377 0 basechar 0
AnchorPoint: "ekaar" 636 480 basechar 0
LayerCount: 2
Fore
SplineSet
635.7 480 m 29
 120 480 l 25
 487.2 266.4 l 25
 125.4 0 l 25
 606 0 l 25
EndSplineSet
EndChar

StartChar: Ra
Encoding: 26 70346 26
Width: 628
VWidth: 0
Flags: W
AnchorPoint: "anusvara" 314 720 basechar 0
AnchorPoint: "ukaar" 314 0 basechar 0
AnchorPoint: "ekaar" 460 540 basechar 0
LayerCount: 2
Fore
SplineSet
120 540 m 17
 201 540 181.5 540 286.5 540 c 0
 397.372 540 493.5 519 493.5 396 c 0
 493.5 275.348 313.5 294 202.5 291 c 1
 313.5 294 508.5 294 508.5 156 c 0
 508.5 54.9121 402.588 0 301.5 0 c 0
 240 0 174 0 141 50.7588 c 9
EndSplineSet
EndChar

StartChar: Dha
Encoding: 27 70347 27
Width: 864
VWidth: 0
Flags: W
AnchorPoint: "anusvara" 432 720 basechar 0
AnchorPoint: "ukaar" 432 0 basechar 0
AnchorPoint: "ekaar" 455 480 basechar 0
LayerCount: 2
Fore
SplineSet
80 480 m 25
 455.3 480 l 21
 314.899 480 149.456 463.177 147.5 292.77 c 0
 144.8 57.5693 285.2 0 433.7 0 c 0
 568.494 0 670.456 44.1211 736.1 148.77 c 24
 772.368 206.588 678.125 266.997 603.8 271.17 c 24
 536.173 274.967 477.415 223.37 479.6 163.17 c 24
 481.929 99 555.2 62.3691 611.899 47.9697 c 9
EndSplineSet
EndChar

StartChar: Na
Encoding: 28 70348 28
Width: 786
VWidth: 0
Flags: W
AnchorPoint: "anusvara" 393 720 basechar 0
AnchorPoint: "ukaar" 393 0 basechar 0
AnchorPoint: "ekaar" 666 480 basechar 0
LayerCount: 2
Fore
SplineSet
666 480 m 29
 666 0 l 25
402 480 m 25
 402 0 l 25
120 480 m 25
 120 54 l 18
 120 -71.6816 279 -177 561 -255 c 9
EndSplineSet
EndChar

StartChar: ta
Encoding: 29 70349 29
Width: 697
VWidth: 0
Flags: W
AnchorPoint: "anusvara" 348 720 basechar 0
AnchorPoint: "ukaar" 348 0 basechar 0
AnchorPoint: "ekaar" 540 480 basechar 0
LayerCount: 2
Fore
SplineSet
120 48 m 17
 247.4 -51.6768 577.4 0 577.4 255.899 c 0
 577.4 450.3 456 479.999 248 479.999 c 0
 56 479.999 192 265.999 306 265.999 c 0
 428.978 265.999 477.4 314.254 524.6 379.999 c 0
EndSplineSet
EndChar

StartChar: tha
Encoding: 30 70350 30
Width: 834
VWidth: 0
Flags: W
AnchorPoint: "anusvara" 417 720 basechar 0
AnchorPoint: "ukaar" 417 0 basechar 0
AnchorPoint: "ekaar" 638 480 basechar 0
LayerCount: 2
Fore
SplineSet
120 480 m 25
 120 60 l 25
 366 462 l 25
 366 36 l 25
 639 441 l 17
 639 71.4004 636 0 714 0 c 9
EndSplineSet
EndChar

StartChar: da
Encoding: 31 70351 31
Width: 908
VWidth: 0
Flags: W
AnchorPoint: "anusvara" 454 720 basechar 0
AnchorPoint: "ukaar" 454 0 basechar 0
AnchorPoint: "ekaar" 635 480 basechar 0
LayerCount: 2
Fore
SplineSet
180.132 417 m 17
 417.132 396 402.132 150 237.132 150 c 0
 120.132 150 106.49 268 129.132 351.6 c 0
 168.132 495.6 284.283 480 399.132 480 c 0
 525.132 480 665.415 438.065 665.415 316.8 c 0
 665.415 48 570.132 15 393.132 0 c 1
 553.767 15.6348 633.132 42 828.132 0 c 9
EndSplineSet
EndChar

StartChar: dha
Encoding: 32 70352 32
Width: 740
VWidth: 0
Flags: W
AnchorPoint: "anusvara" 370 720 basechar 0
AnchorPoint: "ukaar" 370 0 basechar 0
AnchorPoint: "ekaar" 550 480 basechar 0
LayerCount: 2
Fore
SplineSet
80 364.8 m 17
 144.8 429.6 257.6 480 370.4 480 c 0
 514.572 480 575.985 415.054 574.4 312 c 0
 572 156 344 0 260 0 c 0
 111.2 0 140 218.4 231.2 218.4 c 0
 336.8 218.4 420.8 0 660.8 0 c 9
EndSplineSet
EndChar

StartChar: na
Encoding: 33 70353 33
Width: 1053
VWidth: 0
Flags: W
AnchorPoint: "anusvara" 526 720 basechar 0
AnchorPoint: "ukaar" 526 0 basechar 0
AnchorPoint: "ekaar" 910 480 basechar 0
LayerCount: 2
Fore
SplineSet
120 480 m 25
 258 0 l 25
 933 417.6 l 25
EndSplineSet
EndChar

StartChar: pa
Encoding: 34 70354 34
Width: 814
VWidth: 0
Flags: W
AnchorPoint: "anusvara" 407 720 basechar 0
AnchorPoint: "ukaar" 407 0 basechar 0
AnchorPoint: "ekaar" 593 480 basechar 0
LayerCount: 2
Fore
SplineSet
120 458.4 m 17
 231 376.8 346.5 398.4 592.5 480 c 5
 571.5 352.8 511.5 0 607.5 0 c 0
 637.5 0 664.5 4.7998 694.5 33.5996 c 9
EndSplineSet
EndChar

StartChar: pha
Encoding: 35 70355 35
Width: 757
VWidth: 0
Flags: W
AnchorPoint: "anusvara" 378 720 basechar 0
AnchorPoint: "ukaar" 378 0 basechar 0
AnchorPoint: "ekaar" 580 480 basechar 0
LayerCount: 2
Fore
SplineSet
552 414 m 25
 171 15 l 25
120 480 m 17
 174 384 225 480 429 480 c 0
 549 480 641.825 354.515 637.036 226.8 c 24
 632.356 102.008 552 0 411 0 c 9
EndSplineSet
EndChar

StartChar: ba
Encoding: 36 70356 36
Width: 1047
VWidth: 0
Flags: W
AnchorPoint: "anusvara" 523 720 basechar 0
AnchorPoint: "ukaar" 523 0 basechar 0
AnchorPoint: "ekaar" 927 540 basechar 0
LayerCount: 2
Fore
SplineSet
120 540 m 17
 258 480.6 237 207.9 249 0 c 9
 537 540 l 25
 603 0 l 25
 927 540 l 29
EndSplineSet
EndChar

StartChar: bqa
Encoding: 37 70357 37
Width: 739
VWidth: 0
Flags: W
AnchorPoint: "anusvara" 369 720 basechar 0
AnchorPoint: "ukaar" 369 0 basechar 0
AnchorPoint: "ekaar" 600 540 basechar 0
LayerCount: 2
Fore
SplineSet
172.235 540 m 17
 124.985 461.7 87.9287 308.809 162.11 305.1 c 0
 270.11 299.7 331.998 296.864 440.614 291.6 c 17
 579.485 281.25 619.985 362.25 619.985 409.5 c 0
 619.985 471.827 573.008 540 505.235 540 c 0
 417.485 540 339.825 469.279 361.235 391.5 c 24
 398.29 256.896 615.485 270 615.485 139.5 c 0
 615.485 45 568.235 0 478.235 0 c 0
 379.235 0 325.235 51.75 311.735 119.25 c 9
EndSplineSet
EndChar

StartChar: bha
Encoding: 38 70358 38
Width: 1140
VWidth: 0
Flags: W
AnchorPoint: "anusvara" 570 720 basechar 0
AnchorPoint: "ukaar" 570 0 basechar 0
AnchorPoint: "ekaar" 1020 540 basechar 0
LayerCount: 2
Fore
SplineSet
1020.62 540 m 29
 696.62 0 l 25
 630.62 540 l 25
 342.62 0 l 17
 359.12 205.2 407.12 540 213.62 540 c 0
 50.1201 540 107.12 224.1 335.12 375.3 c 9
EndSplineSet
EndChar

StartChar: ma
Encoding: 39 70359 39
Width: 696
VWidth: 0
Flags: W
AnchorPoint: "anusvara" 348 720 basechar 0
AnchorPoint: "ukaar" 348 0 basechar 0
AnchorPoint: "ekaar" 540 480 basechar 0
LayerCount: 2
Fore
SplineSet
120 480 m 1
 219 378 207 261 126 0 c 1
 195 228 315 480 486 480 c 4
 711 480 342 0 520.5 0 c 0
 576 0 546 0 576 0 c 9
EndSplineSet
EndChar

StartChar: ya
Encoding: 40 70360 40
Width: 935
VWidth: 0
Flags: W
AnchorPoint: "anusvara" 467 720 basechar 0
AnchorPoint: "ukaar" 467 0 basechar 0
AnchorPoint: "ekaar" 650 480 basechar 0
LayerCount: 2
Fore
SplineSet
315 480 m 25
 427.32 480 559 480 603 480 c 0
 771 480 616.977 225.376 661 70 c 24
 672.143 30.6738 698.785 7.31152 739 0 c 24
 772.318 -6.05762 797 14 815 42 c 9
213 480 m 17
 369 480 447 468 466.5 384 c 0
 485.997 300.014 327 252 241.5 259.2 c 1
 327 252 464.576 224.588 471 139.2 c 24
 477.39 54.2646 385.5 0 261 0 c 0
 169.5 0 135 28.7998 120 45.5996 c 9
EndSplineSet
EndChar

StartChar: ra
Encoding: 41 70361 41
Width: 671
VWidth: 0
Flags: W
AnchorPoint: "anusvara" 335 720 basechar 0
AnchorPoint: "ukaar" 335 0 basechar 0
AnchorPoint: "ekaar" 490 480 basechar 0
LayerCount: 2
Fore
SplineSet
120 208 m 17
 364.5 214.4 488 72 551.5 9.59961 c 9
166 480 m 17
 396 480 516 472.069 516 352 c 0
 516 249.6 408 209.6 250 200 c 9
EndSplineSet
EndChar

StartChar: la
Encoding: 42 70362 42
Width: 766
VWidth: 0
Flags: W
AnchorPoint: "anusvara" 383 720 basechar 0
AnchorPoint: "ukaar" 383 0 basechar 0
AnchorPoint: "ekaar" 490 480 basechar 0
LayerCount: 2
Fore
SplineSet
120 78.5596 m 17
 341.75 230.56 623 62.4004 686.5 0 c 9
166 480 m 17
 211.75 322.56 532.5 472.069 532.5 352 c 0
 532.5 249.6 411.75 172.56 295.75 152.56 c 9
EndSplineSet
EndChar

StartChar: va
Encoding: 43 70363 43
Width: 660
VWidth: 0
Flags: W
AnchorPoint: "anusvara" 330 720 basechar 0
AnchorPoint: "ukaar" 330 0 basechar 0
AnchorPoint: "ekaar" 490 480 basechar 0
LayerCount: 2
Fore
SplineSet
324.153 480 m 24
 206.573 479.16 115.747 375.501 120.153 258 c 24
 125.128 125.352 209.415 -0.948242 342.153 0 c 24
 469.916 0.912109 544.941 133.324 540.153 261 c 28
 535.658 380.879 444.114 480.856 324.153 480 c 24
EndSplineSet
EndChar

StartChar: za
Encoding: 44 70364 44
Width: 831
VWidth: 0
Flags: W
AnchorPoint: "anusvara" 415 720 basechar 0
AnchorPoint: "ukaar" 415 0 basechar 0
AnchorPoint: "ekaar" 650 480 basechar 0
LayerCount: 2
Fore
SplineSet
174 460 m 25
 166.98 327.4 161.471 254.022 156 120 c 0
 152 22 239.722 0 282 0 c 0
 354 0 394.8 75.9941 394 124 c 0
 392 244 244 284 166 200 c 9
120 480 m 17
 240 446 468 446 649.25 480 c 5
 628.25 352.8 568.25 0 664.25 0 c 0
 694.25 0 721.25 4.7998 751.25 33.5996 c 9
EndSplineSet
EndChar

StartChar: sa
Encoding: 45 70365 45
Width: 831
VWidth: 0
Flags: W
AnchorPoint: "anusvara" 415 720 basechar 0
AnchorPoint: "ukaar" 415 0 basechar 0
AnchorPoint: "ekaar" 650 480 basechar 0
LayerCount: 2
Fore
SplineSet
174 460 m 25
 166.98 327.4 161.471 254.022 156 120 c 0
 152 22 189.347 0 231.625 0 c 0
 272.295 0 287.739 9.24707 306.625 39 c 1
120 480 m 17
 240 446 468 446 649.25 480 c 5
 628.25 352.8 568.25 0 664.25 0 c 0
 694.25 0 721.25 4.7998 751.25 33.5996 c 9
EndSplineSet
EndChar

StartChar: ha
Encoding: 46 70366 46
Width: 719
VWidth: 0
Flags: W
AnchorPoint: "anusvara" 359 720 basechar 0
AnchorPoint: "ukaar" 359 0 basechar 0
AnchorPoint: "ekaar" 560 480 basechar 0
LayerCount: 2
Fore
SplineSet
532.8 376.8 m 17
 441.272 312 242.073 175.2 120 213.6 c 13
136.8 446.4 m 17
 240 480 274.255 480 351.055 480 c 0
 492.655 480 629.682 340.932 593.455 201.6 c 24
 552.345 43.4854 391.854 0 226.255 0 c 9
EndSplineSet
EndChar

StartChar: anusvAra
Encoding: 47 70367 47
Width: 0
VWidth: 0
Flags: W
AnchorPoint: "anusvara" -100 700 mark 0
LayerCount: 2
Fore
SplineSet
-81 713.079 m 25
 -120 681.88 l 25
EndSplineSet
EndChar

StartChar: AT
Encoding: 48 70368 48
Width: 200
VWidth: 0
Flags: W
AnchorPoint: "anusvara" 80 720 basechar 0
LayerCount: 2
Fore
SplineSet
80 480 m 25
 80 0 l 25
EndSplineSet
EndChar

StartChar: iT
Encoding: 49 70369 49
Width: 200
VWidth: 0
Flags: W
LayerCount: 2
Fore
SplineSet
120 0 m 25
 120 480 l 18
 120 600 142.267 700 240 700 c 24
 346.092 700 400 600 400 480 c 9
EndSplineSet
EndChar

StartChar: IT
Encoding: 50 70370 50
Width: 200
VWidth: 0
Flags: W
AnchorPoint: "anusvara" -100 800 basechar 0
LayerCount: 2
Fore
SplineSet
80 0 m 25
 80 480 l 18
 80 600 57.7334 700 -40 700 c 24
 -146.092 700 -200 600 -200 480 c 9
EndSplineSet
EndChar

StartChar: uT
Encoding: 51 70371 51
Width: 0
VWidth: 0
Flags: W
AnchorPoint: "ukaar" -250 0 mark 0
LayerCount: 2
Fore
SplineSet
-400 -60 m 17
 -370 -111.962 -313.007 -120 -250 -120 c 24
 -186.993 -120 -130 -111.962 -100 -60 c 9
EndSplineSet
EndChar

StartChar: UT
Encoding: 52 70372 52
Width: 0
VWidth: 0
Flags: W
AnchorPoint: "ukaar" -250 0 mark 0
LayerCount: 2
Fore
SplineSet
-400 -195 m 17
 -370 -246.962 -313.007 -255 -250 -255 c 24
 -186.993 -255 -130 -246.962 -100 -195 c 9
-400 -60 m 21
 -370 -111.962 -313.007 -120 -250 -120 c 28
 -186.993 -120 -130 -111.962 -100 -60 c 13
EndSplineSet
EndChar

StartChar: eT
Encoding: 53 70373 53
Width: 0
VWidth: 0
Flags: W
AnchorPoint: "anusvara" -300 800 basechar 0
AnchorPoint: "ekaar" -100 480 mark 0
LayerCount: 2
Fore
SplineSet
-527 642 m 17
 -326 735 -170 642 -100 480 c 9
EndSplineSet
EndChar

StartChar: aiT
Encoding: 54 70374 54
Width: 0
VWidth: 0
Flags: W
AnchorPoint: "anusvara" -300 800 basechar 0
AnchorPoint: "ekaar" -100 480 mark 0
LayerCount: 2
Fore
SplineSet
-515.75 602.184 m 17
 -308.75 635.184 -244.5 622.104 -100 480 c 13
-481.5 733.104 m 17
 -280.5 826.104 -125.75 662.184 -100 480 c 13
EndSplineSet
EndChar

StartChar: oT
Encoding: 55 70375 55
Width: 0
VWidth: 0
Flags: W
AnchorPoint: "anusvara" -300 800 basechar 0
AnchorPoint: "ekaar" -100 480 mark 0
LayerCount: 2
Fore
SplineSet
-527 682.104 m 17
 -448.5 406.104 -112.5 949.104 -100 480 c 13
EndSplineSet
EndChar

StartChar: auT
Encoding: 56 70376 56
Width: 0
VWidth: 0
Flags: W
AnchorPoint: "anusvara" -300 800 basechar 0
AnchorPoint: "ekaar" -100 480 mark 0
LayerCount: 2
Fore
SplineSet
-303 597.79 m 17
 -285 534.79 -261 480 -150 480 c 0
 -42 480 -55.9229 613.783 -75 643.625 c 0
 -164.305 783.324 -443.317 454.684 -508 682.104 c 9
EndSplineSet
EndChar

StartChar: nukta
Encoding: 57 70377 57
Width: 0
VWidth: 0
Flags: W
AnchorPoint: "anusvara" -250 -255 basechar 0
AnchorPoint: "ukaar" -250 0 mark 0
LayerCount: 2
Fore
SplineSet
-232 -103.801 m 25
 -271 -135 l 25
EndSplineSet
EndChar

StartChar: virAma
Encoding: 58 70378 58
Width: 0
VWidth: 0
Flags: W
AnchorPoint: "ukaar" -250 0 mark 0
LayerCount: 2
Fore
SplineSet
-400 -60 m 17
 -362 -68.5 -284.057 -105.129 -234 -138.5 c 0
 -156 -190.5 -128 -218.5 -100 -255 c 9
EndSplineSet
EndChar

StartChar: bqurI
Encoding: 59 70384 59
Width: 596
VWidth: 0
Flags: W
LayerCount: 2
Fore
SplineSet
288.225 399.993 m 24
 184.479 389.502 115.545 296.163 120.225 191.993 c 24
 124.902 87.8535 202.478 -10.4883 306.192 0 c 24
 416.552 11.1602 481.202 117.184 476.225 227.993 c 24
 471.765 327.269 387.096 409.991 288.225 399.993 c 24
EndSplineSet
EndChar

StartChar: hiku
Encoding: 60 70385 60
Width: 551
VWidth: 0
Flags: W
LayerCount: 2
Fore
SplineSet
351 378 m 17
 267 198 120 321 120 414 c 0
 120 477.224 162 540 222 540 c 0
 312 540 359.067 479.43 357 405 c 0
 354 297 342 0 417 0 c 0
 441.681 0 462 0 471 33 c 9
EndSplineSet
EndChar

StartChar: bqaH
Encoding: 61 70386 61
Width: 779
VWidth: 0
Flags: W
LayerCount: 2
Fore
SplineSet
119.3 364.8 m 17
 184.1 429.6 296.899 480 409.7 480 c 0
 553.872 480 615.285 415.054 613.7 312 c 0
 611.3 156 383.3 30 299.3 30 c 0
 150.5 30 179.3 150 270.5 150 c 0
 376.1 150 489 171 659.4 0 c 9
EndSplineSet
EndChar

StartChar: Te
Encoding: 62 70387 62
Width: 681
VWidth: 0
Flags: W
LayerCount: 2
Fore
SplineSet
132 426.667 m 17
 198 466.667 234 480 339 480 c 0
 449.872 480 546 461.333 546 352 c 0
 546 244.754 366 261.333 255 258.667 c 1
 366 261.333 561 261.333 561 138.667 c 0
 561 48.8105 454.938 4.88281 354 0 c 24
 249.376 -5.06055 168 34.667 120 117.333 c 9
EndSplineSet
EndChar

StartChar: cAri
Encoding: 63 70388 63
Width: 752
VWidth: 0
Flags: W
LayerCount: 2
Fore
SplineSet
632 540 m 17
 510 412.2 234 183.6 234 111.6 c 0
 234 52.2002 297.187 0.884766 364 0 c 24
 433.571 -0.920898 506 46.7998 506 108 c 0
 506 153.543 242 480 172 480 c 0
 146 480 100 448 80 360 c 9
EndSplineSet
EndChar

StartChar: paJja
Encoding: 64 70389 64
Width: 699
VWidth: 0
Flags: W
LayerCount: 2
Fore
SplineSet
619.25 33.5996 m 17
 589.25 4.7998 562.25 0 532.25 0 c 0
 436.25 0 496.25 352.8 517.25 480 c 1
 493.522 323.903 494 237.583 296 250 c 0
 183.757 257.039 120 345.263 120 480 c 9
EndSplineSet
EndChar

StartChar: chaha
Encoding: 65 70390 65
Width: 681
VWidth: 0
Flags: W
LayerCount: 2
Fore
SplineSet
422 426.667 m 17
 402 459.973 384.5 480 310.5 480 c 0
 236.5 480 135 415.528 135 352 c 0
 135 269.75 266 243.083 456 258.667 c 1
 244 258.667 120 209.306 120 107.973 c 0
 120 18.1162 233.427 -2.11328 327 0 c 24
 422.881 2.16602 486.5 34.667 534.5 117.333 c 9
EndSplineSet
EndChar

StartChar: sata
Encoding: 66 70391 66
Width: 792
VWidth: 0
Flags: W
LayerCount: 2
Fore
SplineSet
120 480 m 17
 120 189 204 0 429 0 c 0
 564.689 0 672 113.311 672 249 c 0
 672 381 621 480 486 480 c 0
 351.267 480 303 186 636 153 c 0
EndSplineSet
EndChar

StartChar: aTha
Encoding: 67 70392 67
Width: 756
VWidth: 0
Flags: W
LayerCount: 2
Fore
SplineSet
546.354 480 m 17
 360.354 375 102.895 220 120.895 115 c 0
 133.817 39.6143 198.895 40 636.895 40 c 9
EndSplineSet
EndChar

StartChar: nava
Encoding: 68 70393 68
Width: 787
VWidth: 0
Flags: W
LayerCount: 2
Fore
SplineSet
526.53 480 m 25
 241.53 57 l 29
145.53 480 m 17
 73.5303 162 154.53 0 379.53 0 c 0
 525.476 0 640.53 111 667.53 282 c 9
EndSplineSet
EndChar

